<?xml version="1.0" standalone="no"?>
<!DOCTYPE svg PUBLIC "-//W3C//DTD SVG 20010904//EN"
 "http://www.w3.org/TR/2001/REC-SVG-20010904/DTD/svg10.dtd">
<svg version="1.0" xmlns="http://www.w3.org/2000/svg"
 width="1920.000000pt" height="1067.000000pt" viewBox="0 0 1920.000000 1067.000000"
 preserveAspectRatio="xMidYMid meet">

<g transform="translate(0.000000,1067.000000) scale(0.100000,-0.100000)"
fill="#000000" stroke="none">
<path d="M0 5335 l0 -5335 9600 0 9600 0 0 5335 0 5335 -9600 0 -9600 0 0
-5335z m7967 4529 c9 -23 -13 -40 -32 -24 -12 10 -13 16 -4 26 15 18 28 18 36
-2z m-3705 -401 c-10 -4 -10 -8 -1 -19 14 -17 5 -44 -16 -44 -20 0 -30 27 -16
44 6 7 8 16 4 19 -3 4 5 7 18 6 13 0 18 -3 11 -6z m3016 -782 c16 -23 15 -23
-5 -17 -14 4 -23 2 -27 -9 -6 -16 -46 -21 -46 -6 0 6 9 17 21 25 12 8 18 19
14 26 -14 23 28 5 43 -19z m-3198 -11 c0 -5 -4 -10 -10 -10 -5 0 -10 5 -10 10
0 6 5 10 10 10 6 0 10 -4 10 -10z m-1333 -156 c5 -14 -11 -33 -28 -34 -10 0
-20 31 -13 41 9 15 34 10 41 -7z m2689 -134 c307 -25 580 -119 834 -288 121
-80 240 -185 240 -212 0 -37 -30 -29 -95 28 -173 149 -396 278 -592 341 -470
152 -999 82 -1408 -186 -116 -77 -259 -196 -331 -278 -55 -64 -86 -80 -98 -50
-7 19 80 118 186 213 278 246 643 403 1003 431 55 5 107 9 116 10 9 0 74 -4
145 -9z m59 -221 c447 -53 843 -301 1093 -684 103 -158 163 -286 213 -459 33
-112 37 -164 13 -173 -24 -9 -33 7 -58 108 -69 278 -204 522 -394 715 -295
298 -638 444 -1048 444 -196 0 -334 -25 -512 -92 -64 -24 -86 -28 -95 -19 -21
21 7 45 94 78 211 80 461 110 694 82z m-2195 -14 c10 -12 8 -17 -13 -26 -21
-10 -24 -15 -14 -29 14 -24 -8 -52 -37 -48 -17 2 -21 10 -21 38 0 29 3 34 19
32 11 -2 15 1 11 8 -20 32 30 55 55 25z m2084 -216 c5 -4 6 -15 3 -23 -5 -12
-22 -16 -76 -16 -212 0 -446 -68 -643 -187 -116 -70 -263 -204 -352 -323 -79
-105 -158 -255 -198 -375 -28 -82 -35 -95 -53 -95 -26 0 -25 33 5 120 145 434
499 764 938 876 141 36 348 49 376 23z m-836 -15 c2 -15 -15 -32 -70 -69 -94
-63 -299 -269 -365 -365 -83 -123 -149 -257 -197 -400 -53 -159 -72 -263 -85
-460 -11 -162 -19 -199 -64 -283 -33 -63 -118 -147 -148 -147 -30 0 -23 33 17
71 99 95 128 174 143 392 6 87 20 202 31 257 78 381 317 754 625 973 83 59
108 66 113 31z m1190 -40 c388 -133 712 -470 837 -869 19 -60 41 -153 50 -205
17 -109 19 -321 5 -495 -6 -66 -12 -145 -15 -175 -14 -163 -111 -553 -195
-780 -47 -130 -128 -292 -143 -287 -22 7 -10 61 43 187 89 213 153 418 189
610 62 328 66 361 66 645 0 260 -1 274 -27 375 -15 58 -38 136 -52 173 -137
363 -434 653 -791 772 -82 28 -97 38 -88 62 8 19 35 16 121 -13z m-235 -169
c167 -29 339 -105 477 -210 85 -65 120 -101 120 -123 0 -41 -29 -32 -95 27
-333 302 -821 353 -1206 124 -209 -124 -362 -303 -454 -532 -49 -123 -72 -241
-84 -431 -20 -312 -124 -536 -329 -706 -75 -62 -157 -108 -178 -100 -30 12
-12 42 48 80 140 89 259 229 332 390 53 115 66 179 76 360 11 190 18 233 65
375 132 392 469 682 874 751 79 13 265 11 354 -5z m1189 -12 c104 -113 255
-425 312 -646 61 -233 76 -516 41 -752 -21 -143 -29 -168 -53 -163 -21 4 -21
36 2 173 33 200 19 488 -35 706 -58 239 -151 434 -311 649 -17 24 -19 32 -8
45 17 21 22 19 52 -12z m3045 -49 c8 -21 -13 -42 -28 -27 -13 13 -5 43 11 43
6 0 13 -7 17 -16z m-5834 -68 c3 -7 -11 -40 -30 -72 -84 -139 -160 -325 -218
-537 -12 -45 -20 -58 -33 -55 -61 13 63 387 205 621 34 56 64 74 76 43z m1617
-101 c155 -35 324 -136 449 -270 169 -181 241 -379 241 -666 0 -251 -28 -456
-99 -724 -73 -277 -158 -489 -297 -735 -49 -86 -181 -287 -195 -296 -6 -3 -18
1 -26 9 -15 14 -9 27 59 129 240 360 387 726 452 1118 46 278 60 548 35 686
-23 134 -88 285 -164 384 -107 139 -242 236 -406 291 -129 44 -300 52 -432 20
-108 -26 -231 -84 -317 -150 -67 -52 -94 -61 -103 -36 -10 23 98 111 203 164
82 42 188 78 280 95 50 9 247 -2 320 -19z m-2970 -197 c-28 -22 -34 -22 -51
-1 -10 12 -10 15 -1 9 7 -4 19 -1 27 8 9 8 23 12 32 9 14 -5 13 -9 -7 -25z
m2982 -40 c37 -14 94 -41 125 -59 76 -45 191 -160 232 -232 30 -53 32 -60 18
-74 -20 -20 -30 -13 -74 55 -214 336 -670 385 -949 102 -124 -125 -171 -241
-185 -460 -11 -177 -24 -263 -50 -355 -47 -162 -74 -216 -99 -200 -15 10 -12
31 16 109 40 112 65 248 74 416 13 227 46 329 151 470 86 116 196 193 339 237
66 20 91 23 205 20 109 -3 141 -8 197 -29z m-3069 8 c9 -22 -19 -42 -37 -26
-19 15 -10 40 14 40 10 0 20 -6 23 -14z m3774 -28 c32 -35 108 -193 138 -288
65 -207 71 -484 19 -834 -25 -173 -43 -236 -65 -236 -11 0 -22 7 -25 15 -3 8
3 70 15 137 65 388 66 664 4 878 -24 82 -78 206 -124 282 -19 31 -20 40 -9 52
17 21 23 20 47 -6z m1707 -3 c-6 -16 -24 -21 -24 -7 0 11 11 22 21 22 5 0 6
-7 3 -15z m-493 -41 c20 -21 18 -26 -8 -23 -4 0 -15 -16 -25 -38 -9 -21 -17
-32 -17 -25 -1 6 -7 12 -15 12 -8 0 -16 6 -19 14 -6 16 11 36 30 36 10 0 11 5
3 19 -5 11 -10 24 -10 29 0 16 37 2 61 -24z m1479 20 c0 -8 -5 -12 -10 -9 -6
4 -8 11 -5 16 9 14 15 11 15 -7z m-4287 -78 c3 -7 -11 -40 -30 -72 -88 -146
-121 -266 -133 -481 -11 -180 -13 -197 -51 -328 -75 -257 -229 -470 -440 -611
-99 -66 -132 -75 -137 -39 -2 15 15 31 70 64 85 53 257 220 311 303 82 126
145 275 172 409 8 41 19 146 24 234 13 213 46 326 137 476 35 58 65 76 77 45z
m-3543 -16 c0 -5 -4 -10 -10 -10 -5 0 -10 5 -10 10 0 6 5 10 10 10 6 0 10 -4
10 -10z m4200 -65 c19 -23 -2 -42 -55 -49 -71 -11 -158 -61 -215 -123 -91
-100 -108 -149 -120 -365 -11 -196 -21 -250 -76 -418 -114 -348 -334 -648
-608 -831 -63 -42 -79 -44 -84 -13 -2 15 16 32 70 69 97 66 279 248 358 359
179 250 265 515 289 886 11 169 29 228 97 319 53 71 132 127 222 158 79 27
105 28 122 8z m216 -32 c126 -61 229 -204 254 -353 14 -83 1 -322 -26 -482
-25 -148 -89 -384 -139 -514 -100 -259 -256 -518 -438 -729 -115 -134 -129
-147 -151 -139 -27 10 -19 30 37 91 180 195 276 332 390 558 145 288 197 451
253 800 25 156 25 412 1 482 -39 110 -136 210 -242 248 -62 22 -78 36 -69 59
9 24 53 17 130 -21z m2689 -169 c20 -20 15 -38 -12 -42 -28 -4 -49 23 -33 43
16 19 25 19 45 -1z m-2775 -37 c53 -27 105 -91 121 -150 25 -91 -8 -450 -60
-648 -59 -222 -157 -459 -189 -459 -33 0 -33 26 0 97 116 255 198 619 198 877
0 90 -4 117 -20 152 -38 78 -134 121 -214 94 -89 -29 -135 -103 -136 -215 0
-78 -8 -99 -36 -93 -42 7 -26 190 22 265 68 104 201 138 314 80z m-1385 -192
c0 -184 -34 -305 -119 -433 -24 -37 -62 -84 -83 -104 -48 -46 -142 -108 -164
-108 -24 0 -31 28 -11 44 165 134 206 181 263 301 43 93 55 149 64 299 6 119
9 129 33 124 15 -3 17 -20 17 -123z m1941 -169 c-7 -187 -13 -225 -34 -233
-15 -6 -45 24 -37 37 3 4 10 86 16 181 6 96 16 177 22 181 6 3 17 4 25 0 13
-4 14 -29 8 -166z m868 152 c12 -20 -6 -349 -29 -513 -33 -233 -124 -618 -153
-647 -6 -6 -18 -8 -27 -4 -20 7 -21 4 28 177 74 263 126 623 127 865 0 80 4
124 12 132 15 15 28 11 42 -10z m760 3 c9 -14 -4 -41 -19 -41 -18 0 -28 17
-21 35 6 17 32 20 40 6z m-5144 -22 c0 -5 -7 -9 -15 -9 -15 0 -20 12 -9 23 8
8 24 -1 24 -14z m2862 -189 c-10 -326 -171 -740 -413 -1065 -115 -155 -350
-382 -383 -369 -31 12 -16 41 47 91 138 113 310 313 415 485 92 150 164 322
216 518 29 107 66 316 66 372 0 52 9 70 34 66 20 -3 21 -8 18 -98z m-2092 -5
c0 -8 -4 -15 -10 -15 -5 0 -10 7 -10 15 0 8 5 15 10 15 6 0 10 -7 10 -15z
m3931 0 c-1 -15 -24 -12 -29 3 -3 9 2 13 12 10 10 -1 17 -7 17 -13z m-2063
-76 c9 -74 -90 -383 -178 -560 -96 -191 -258 -405 -403 -534 -142 -125 -207
-161 -207 -116 0 12 30 43 83 84 227 179 424 438 532 700 37 90 86 263 106
372 6 33 16 66 21 73 17 20 43 10 46 -19z m-3098 -154 c0 -18 -5 -25 -19 -25
-11 0 -23 5 -26 10 -11 18 3 40 25 40 15 0 20 -7 20 -25z m6440 -35 c0 -5 -2
-10 -4 -10 -3 0 -8 5 -11 10 -3 6 -1 10 4 10 6 0 11 -4 11 -10z m640 -160 c0
-5 -4 -10 -10 -10 -5 0 -10 5 -10 10 0 6 5 10 10 10 6 0 10 -4 10 -10z m-3193
-45 c16 -44 -85 -341 -192 -561 -73 -150 -214 -374 -304 -482 -26 -31 -53 -67
-60 -80 -15 -28 -61 -31 -61 -4 0 10 32 59 72 108 197 246 347 530 460 869 28
83 52 153 55 158 7 12 23 8 30 -8z m-1459 -127 c8 -42 -210 -264 -359 -364
-69 -47 -99 -50 -99 -10 1 15 23 35 83 73 101 64 198 151 278 249 60 74 90 90
97 52z m1855 -100 c11 -35 -102 -336 -200 -533 -120 -239 -161 -297 -179 -250
-3 8 15 50 40 93 89 152 198 401 265 605 26 76 37 97 51 97 10 0 20 -6 23 -12z
m-3407 -49 c3 -6 2 -15 -2 -19 -12 -12 -38 5 -30 19 9 14 23 14 32 0z m4644
-23 c0 -3 -4 -8 -10 -11 -5 -3 -10 -1 -10 4 0 6 5 11 10 11 6 0 10 -2 10 -4z
m-444 -156 c-1 -16 -4 -30 -8 -30 -5 0 -8 -4 -8 -10 0 -5 6 -7 14 -4 11 4 13
0 9 -15 -3 -12 -12 -21 -20 -21 -8 0 -12 -4 -9 -9 3 -5 0 -11 -8 -14 -22 -9
-49 -2 -60 15 -14 23 19 71 44 63 10 -3 21 -1 25 4 4 7 -1 8 -12 4 -14 -5 -12
0 7 20 14 15 25 27 26 27 1 0 1 -13 0 -30z m-1850 -35 c21 -53 -401 -565 -465
-565 -40 0 -22 34 60 115 110 108 215 235 299 361 67 99 94 122 106 89z m3004
-54 c0 -21 -27 -31 -45 -17 -16 12 -17 16 -6 30 10 12 18 13 32 5 10 -5 19
-13 19 -18z m-4771 -80 c19 -13 5 -48 -19 -46 -28 2 -42 18 -34 38 7 18 31 22
53 8z m3540 -44 c15 -19 -10 -53 -33 -44 -16 6 -22 38 -9 50 10 11 30 8 42 -6z
m-4489 -247 c0 -5 -4 -10 -10 -10 -5 0 -10 5 -10 10 0 6 5 10 10 10 6 0 10 -4
10 -10z m5450 -16 c0 -8 -9 -14 -20 -14 -19 0 -27 19 -14 33 10 9 34 -4 34
-19z m-4849 -35 c34 -36 33 -55 -2 -51 -27 2 -83 58 -74 72 12 20 48 9 76 -21z
m4289 -169 c0 -5 -2 -10 -4 -10 -3 0 -8 5 -11 10 -3 6 -1 10 4 10 6 0 11 -4
11 -10z m-4270 -272 c0 -5 -3 -8 -7 -8 -10 0 -43 32 -43 42 0 11 49 -24 50
-34z m-2120 -88 c0 -21 -24 -28 -35 -10 -8 14 3 30 21 30 8 0 14 -9 14 -20z
m6770 -70 c0 -5 -4 -10 -10 -10 -5 0 -10 5 -10 10 0 6 5 10 10 10 6 0 10 -4
10 -10z m-4394 -205 c37 -22 76 -65 59 -65 -27 0 -125 67 -125 85 0 11 26 3
66 -20z m-1676 5 c0 -5 -4 -10 -10 -10 -5 0 -10 5 -10 10 0 6 5 10 10 10 6 0
10 -4 10 -10z m1615 -175 c0 -30 -39 -27 -43 3 -3 20 0 23 20 20 15 -2 23 -10
23 -23z m3760 -22 c-2 -10 -4 -21 -4 -25 -1 -11 -23 -10 -40 1 -21 13 -5 41
23 41 18 0 23 -5 21 -17z m-4622 -587 c8 -19 -15 -37 -32 -26 -17 10 -7 40 13
40 7 0 16 -6 19 -14z m2560 -1063 c-7 -2 -21 -2 -30 0 -10 3 -4 5 12 5 17 0
24 -2 18 -5z m480 0 c-7 -2 -19 -2 -25 0 -7 3 -2 5 12 5 14 0 19 -2 13 -5z
m195 0 c-16 -2 -40 -2 -55 0 -16 2 -3 4 27 4 30 0 43 -2 28 -4z m369 -9 c-3
-3 -12 -4 -19 -1 -8 3 -5 6 6 6 11 1 17 -2 13 -5z m-807 -125 c0 -5 -4 -9 -10
-9 -5 0 -10 7 -10 16 0 8 5 12 10 9 6 -3 10 -10 10 -16z m1103 -186 c-7 -2
-21 -2 -30 0 -10 3 -4 5 12 5 17 0 24 -2 18 -5z m-155 -10 c-10 -2 -28 -2 -40
0 -13 2 -5 4 17 4 22 1 32 -1 23 -4z m-1435 -10 c-18 -2 -48 -2 -65 0 -18 2
-4 4 32 4 36 0 50 -2 33 -4z m956 -9 c2 -2 -171 -3 -385 -2 l-389 3 340 5
c313 5 423 3 434 -6z m259 9 c-38 -2 -98 -2 -135 0 -38 2 -7 3 67 3 74 0 105
-1 68 -3z m-1138 -105 c0 -5 -18 -8 -41 -8 l-41 0 23 19 c18 15 27 16 41 7 10
-6 18 -14 18 -18z m287 6 c-3 -3 -12 -4 -19 -1 -8 3 -5 6 6 6 11 1 17 -2 13
-5z m113 2 c0 -8 -61 -12 -66 -4 -3 4 11 8 30 8 20 0 36 -2 36 -4z m297 -3
c-20 -2 -52 -2 -70 0 -17 2 0 4 38 4 39 0 53 -2 32 -4z m101 -4 c-18 -7 -33
-7 -45 0 -14 8 -9 10 27 10 42 -1 43 -1 18 -10z m84 -1 c-17 -8 -26 -8 -34 0
-9 9 -4 12 23 11 32 0 33 -1 11 -11z m-1382 -22 c0 -11 -19 -15 -25 -6 -3 5 1
10 9 10 9 0 16 -2 16 -4z m995 -16 c3 -5 -1 -10 -10 -10 -9 0 -13 5 -10 10 3
6 8 10 10 10 2 0 7 -4 10 -10z m-197 -27 c-16 -2 -40 -2 -55 0 -16 2 -3 4 27
4 30 0 43 -2 28 -4z m295 0 c-7 -2 -19 -2 -25 0 -7 3 -2 5 12 5 14 0 19 -2 13
-5z m80 0 c-7 -2 -13 -11 -13 -18 0 -9 21 -15 62 -20 34 -4 68 -14 76 -22 12
-11 45 -14 156 -13 77 1 202 -2 277 -5 117 -6 137 -5 148 9 18 21 42 20 94 -4
23 -10 58 -20 77 -22 l35 -3 -49 -17 c-56 -20 -188 -25 -148 -6 37 18 25 30
-23 23 -24 -4 -101 -8 -170 -9 -69 0 -125 -4 -125 -7 0 -4 -22 -7 -50 -7 -27
0 -50 4 -50 8 0 18 -53 21 -72 3 -19 -17 -20 -17 -29 0 -8 13 -23 17 -67 16
-31 0 -50 -3 -41 -7 27 -11 0 -27 -52 -30 -40 -3 -49 0 -63 20 -16 22 -21 23
-204 26 -168 3 -185 2 -167 -12 19 -14 19 -15 2 -22 -19 -7 -32 1 -32 19 0 7
-9 13 -20 16 -16 3 -17 1 -7 -11 6 -8 9 -17 6 -21 -10 -10 -34 4 -34 20 0 12
-14 13 -82 8 -152 -11 -207 -10 -219 2 -10 10 -2 12 37 11 27 -2 103 -2 168 0
94 1 117 5 108 14 -7 7 -33 15 -60 20 -37 5 -32 6 21 2 37 -2 67 -1 67 3 0 4
24 6 52 4 29 -2 88 -5 131 -5 55 -1 77 -5 77 -13 0 -16 76 -18 85 -3 3 6 19
10 36 10 22 0 29 5 29 19 0 11 -8 22 -17 24 -10 3 0 5 22 5 22 0 34 -2 28 -5z
m-786 -9 c-3 -3 -12 -4 -19 -1 -8 3 -5 6 6 6 11 1 17 -2 13 -5z m1533 -14 c-6
-4 -23 -5 -38 -2 -23 5 -24 6 -7 12 24 9 62 0 45 -10z m-883 -16 c-3 -3 -12
-4 -19 -1 -8 3 -5 6 6 6 11 1 17 -2 13 -5z m316 -1 c-7 -2 -21 -2 -30 0 -10 3
-4 5 12 5 17 0 24 -2 18 -5z m337 -8 c0 -8 -9 -15 -20 -15 -11 0 -20 7 -20 15
0 8 9 15 20 15 11 0 20 -7 20 -15z m-1993 -1 c-3 -3 -12 -4 -19 -1 -8 3 -5 6
6 6 11 1 17 -2 13 -5z m2721 -1 c-10 -2 -28 -2 -40 0 -13 2 -5 4 17 4 22 1 32
-1 23 -4z m-2638 -7 c0 -2 -7 -7 -16 -10 -8 -3 -12 -2 -9 4 6 10 25 14 25 6z
m538 -38 c-3 -9 -40 -15 -109 -20 -57 -4 -139 -12 -181 -17 -49 -7 -96 -7
-127 -1 -28 5 -61 5 -77 0 -19 -5 -23 -9 -10 -9 11 -1 16 -4 12 -8 -4 -5 -65
-8 -134 -8 -129 0 -197 -15 -117 -25 37 -5 30 -8 -73 -33 -122 -29 -182 -51
-182 -65 0 -18 101 -58 185 -74 l70 -13 -95 -6 c-101 -6 -133 -15 -109 -30 24
-15 -20 -10 -91 10 l-65 18 93 8 c50 4 94 11 97 15 5 8 -126 22 -147 16 -7 -2
-26 -7 -41 -10 -15 -4 -25 -11 -22 -16 3 -6 -5 -10 -19 -10 -14 0 -26 3 -26 8
0 8 -42 27 -83 36 -34 8 -26 26 11 27 27 0 76 17 57 18 -5 1 -3 6 5 11 11 7
-6 10 -55 11 -38 0 -79 4 -90 8 -11 5 -31 4 -44 -1 -45 -17 -31 -1 25 27 41
21 78 30 138 36 44 4 97 12 116 18 54 17 157 14 164 -4 5 -14 9 -14 35 0 17 8
42 15 57 15 22 0 25 2 14 15 -11 13 0 15 96 15 60 0 141 5 179 11 39 5 102 10
140 9 49 0 66 2 55 9 -15 10 33 14 263 19 67 1 88 -1 85 -10z m632 -7 c-1 -24
-20 -33 -61 -26 -56 9 -68 16 -43 26 23 9 104 9 104 0z m90 -1 c0 -5 -5 -10
-11 -10 -5 0 -7 5 -4 10 3 6 8 10 11 10 2 0 4 -4 4 -10z m300 -4 c0 -11 -19
-15 -25 -6 -3 5 1 10 9 10 9 0 16 -2 16 -4z m895 -7 c26 0 28 -2 10 -10 -13
-6 13 -8 80 -5 55 3 89 1 75 -3 -24 -7 -24 -8 10 -14 19 -3 59 -9 89 -13 35
-5 48 -10 39 -15 -8 -5 -62 0 -123 11 -60 11 -125 19 -144 19 -21 -1 12 -10
77 -22 62 -11 109 -24 105 -28 -16 -16 -90 -12 -198 8 -60 12 -132 25 -160 29
l-50 7 55 10 c46 9 51 11 30 17 -25 7 -25 7 5 12 17 3 39 4 50 2 11 -2 34 -4
50 -5z m-1798 -5 c-3 -3 -12 -4 -19 -1 -8 3 -5 6 6 6 11 1 17 -2 13 -5z m56
-1 c-7 -2 -19 -2 -25 0 -7 3 -2 5 12 5 14 0 19 -2 13 -5z m1444 -39 c-3 -3
-12 -4 -19 -1 -8 3 -5 6 6 6 11 1 17 -2 13 -5z m953 -18 c46 -10 102 -26 124
-36 l40 -17 -64 4 -65 4 30 -18 30 -18 -77 -3 c-111 -4 -97 -22 16 -22 60 0
97 -4 102 -11 5 -9 -22 -10 -100 -7 -94 4 -111 2 -129 -13 -22 -18 -21 -18 39
-19 54 0 64 -3 95 -32 19 -18 31 -30 25 -25 -16 11 -26 8 -26 -9 0 -8 4 -13 9
-9 5 3 12 1 16 -5 3 -5 1 -10 -5 -10 -7 0 -10 -7 -6 -15 3 -8 2 -15 -3 -15 -5
0 -11 14 -14 30 -4 17 -11 30 -16 30 -17 0 -35 -43 -36 -85 l0 -40 -85 4 c-47
2 -87 5 -89 7 -2 2 10 18 28 36 38 38 42 78 9 78 -13 0 -50 -7 -83 -15 -63
-15 -146 -20 -95 -6 l25 7 -22 12 c-25 14 -193 16 -193 3 0 -11 35 -21 85 -22
77 -1 83 -15 10 -23 -39 -4 -88 -10 -109 -13 -27 -4 -37 -3 -32 5 12 20 -116
39 -185 27 -55 -9 -35 -21 57 -34 l69 -10 -80 6 c-96 8 -193 6 -465 -10 l-205
-12 50 -30 50 -30 -135 -6 c-74 -4 -197 -7 -272 -8 l-137 -1 -9 33 -8 32 -108
3 c-100 2 -110 1 -123 -18 -13 -19 -24 -20 -184 -20 -93 0 -169 3 -169 6 0 3
10 14 22 24 22 17 17 18 -174 25 -170 6 -202 5 -247 -10 -41 -13 -70 -15 -155
-9 -109 7 -127 17 -53 30 61 10 28 20 -118 34 -117 11 -209 27 -172 29 10 1
15 6 12 11 -8 13 -8 13 116 -4 283 -40 762 -65 1284 -68 187 -1 282 -4 212 -5
l-129 -4 24 -24 c23 -24 25 -25 205 -25 169 0 182 1 176 18 -3 9 -15 25 -27
34 -20 17 -17 18 84 18 284 1 882 58 1005 97 l20 6 -20 8 c-15 7 -12 8 15 7
43 -3 100 10 100 23 0 5 7 9 16 9 28 0 13 53 -21 70 l-30 15 50 6 50 6 -57 1
c-49 2 -58 5 -58 20 0 16 10 18 103 18 61 -1 136 -8 187 -20z m-1887 -3 c-13
-2 -33 -2 -45 0 -13 2 -3 4 22 4 25 0 35 -2 23 -4z m109 -1 c-12 -8 -72 -4
-72 4 0 2 19 4 43 4 25 0 37 -4 29 -8z m280 1 c-51 -2 -132 -2 -180 0 -48 1
-6 3 93 3 99 0 138 -2 87 -3z m1099 -113 l24 -21 -32 16 c-32 15 -42 25 -24
25 5 0 19 -9 32 -20z m-3038 -127 c-7 -2 -19 -2 -25 0 -7 3 -2 5 12 5 14 0 19
-2 13 -5z m3465 -62 c-7 -11 -16 -17 -21 -14 -4 3 0 11 10 19 24 18 25 17 11
-5z m32 -6 c-7 -9 -15 -13 -19 -10 -3 3 1 10 9 15 21 14 24 12 10 -5z m-3615
-75 c3 -5 1 -10 -4 -10 -6 0 -11 5 -11 10 0 6 2 10 4 10 3 0 8 -4 11 -10z
m3315 0 c36 -6 81 -13 100 -16 l35 -7 -28 -8 c-25 -7 -136 3 -197 17 -23 6
-24 7 -5 14 26 11 21 11 95 0z m-3263 -16 c-3 -3 -12 -4 -19 -1 -8 3 -5 6 6 6
11 1 17 -2 13 -5z m2820 -10 c-3 -3 -12 -4 -19 -1 -8 3 -5 6 6 6 11 1 17 -2
13 -5z m-130 -20 c-3 -3 -12 -4 -19 -1 -8 3 -5 6 6 6 11 1 17 -2 13 -5z m453
-13 l85 -17 -95 -23 c-52 -12 -167 -33 -255 -47 l-160 -25 -65 25 c-76 28 -88
23 145 60 88 15 174 30 190 35 43 13 60 12 155 -8z m-2965 0 c25 -6 16 -10
-58 -25 -53 -10 -101 -14 -120 -10 -28 6 -30 8 -12 15 11 4 27 8 35 8 13 1 13
0 0 -9 -12 -7 -8 -10 15 -10 22 0 26 3 15 10 -13 8 -13 10 0 14 46 15 79 17
125 7z m2372 -7 c-3 -3 -12 -4 -19 -1 -8 3 -5 6 6 6 11 1 17 -2 13 -5z m-70
-10 c-3 -3 -12 -4 -19 -1 -8 3 -5 6 6 6 11 1 17 -2 13 -5z m-1720 -10 c-3 -3
-12 -4 -19 -1 -8 3 -5 6 6 6 11 1 17 -2 13 -5z m1646 -1 c-7 -2 -19 -2 -25 0
-7 3 -2 5 12 5 14 0 19 -2 13 -5z m-1570 -10 c-7 -2 -19 -2 -25 0 -7 3 -2 5
12 5 14 0 19 -2 13 -5z m1407 -3 c13 -8 13 -10 -2 -10 -9 0 -20 5 -23 10 -8
13 5 13 25 0z m83 3 c-7 -2 -19 -2 -25 0 -7 3 -2 5 12 5 14 0 19 -2 13 -5z
m-1768 -22 c193 -24 480 -43 735 -49 l275 -7 3 -28 c2 -17 -2 -29 -11 -33 -22
-8 -582 14 -788 31 -142 12 -379 39 -497 56 -26 4 140 47 168 44 19 -3 71 -9
115 -14z m362 13 c-3 -3 -12 -4 -19 -1 -8 3 -5 6 6 6 11 1 17 -2 13 -5z m90 0
c-3 -3 -12 -4 -19 -1 -8 3 -5 6 6 6 11 1 17 -2 13 -5z m1146 -1 c-7 -2 -19 -2
-25 0 -7 3 -2 5 12 5 14 0 19 -2 13 -5z m-1060 -10 c-7 -2 -19 -2 -25 0 -7 3
-2 5 12 5 14 0 19 -2 13 -5z m90 0 c-7 -2 -19 -2 -25 0 -7 3 -2 5 12 5 14 0
19 -2 13 -5z m97 -3 c0 -5 -10 -10 -22 -10 -19 0 -20 2 -8 10 19 13 30 13 30
0z m605 0 c3 -5 -1 -10 -9 -10 -9 0 -16 5 -16 10 0 6 4 10 9 10 6 0 13 -4 16
-10z m88 3 c-7 -2 -19 -2 -25 0 -7 3 -2 5 12 5 14 0 19 -2 13 -5z m100 0 c-7
-2 -19 -2 -25 0 -7 3 -2 5 12 5 14 0 19 -2 13 -5z m-710 -10 c-7 -2 -19 -2
-25 0 -7 3 -2 5 12 5 14 0 19 -2 13 -5z m100 0 c-7 -2 -19 -2 -25 0 -7 3 -2 5
12 5 14 0 19 -2 13 -5z m90 0 c-7 -2 -19 -2 -25 0 -7 3 -2 5 12 5 14 0 19 -2
13 -5z m50 0 c-7 -2 -19 -2 -25 0 -7 3 -2 5 12 5 14 0 19 -2 13 -5z m100 0
c-7 -2 -19 -2 -25 0 -7 3 -2 5 12 5 14 0 19 -2 13 -5z m90 0 c-7 -2 -19 -2
-25 0 -7 3 -2 5 12 5 14 0 19 -2 13 -5z m764 1 c-3 -3 -12 -4 -19 -1 -8 3 -5
6 6 6 11 1 17 -2 13 -5z m-90 -10 c-3 -3 -12 -4 -19 -1 -8 3 -5 6 6 6 11 1 17
-2 13 -5z m-144 -11 c-7 -2 -19 -2 -25 0 -7 3 -2 5 12 5 14 0 19 -2 13 -5z
m-96 -9 c-3 -3 -12 -4 -19 -1 -8 3 -5 6 6 6 11 1 17 -2 13 -5z m-184 -11 c-7
-2 -19 -2 -25 0 -7 3 -2 5 12 5 14 0 19 -2 13 -5z m-265 -10 c-32 -2 -84 -2
-115 0 -32 2 -6 3 57 3 63 0 89 -1 58 -3z m659 -189 c-3 -3 -12 -4 -19 -1 -8
3 -5 6 6 6 11 1 17 -2 13 -5z m-154 -11 c-7 -2 -19 -2 -25 0 -7 3 -2 5 12 5
14 0 19 -2 13 -5z m-1150 -10 c-7 -2 -19 -2 -25 0 -7 3 -2 5 12 5 14 0 19 -2
13 -5z m955 0 c-21 -2 -57 -2 -80 0 -24 2 -7 4 37 4 44 0 63 -2 43 -4z m-550
-10 c-15 -2 -42 -2 -60 0 -18 2 -6 4 27 4 33 0 48 -2 33 -4z m155 0 c-7 -2
-19 -2 -25 0 -7 3 -2 5 12 5 14 0 19 -2 13 -5z"/>
<path d="M7010 5402 c0 -4 10 -9 22 -9 18 -2 20 0 8 7 -18 12 -30 13 -30 2z"/>
<path d="M3370 4132 c0 -5 7 -15 15 -22 8 -7 15 -9 15 -6 0 4 -7 14 -15 22 -8
9 -15 11 -15 6z"/>
<path d="M3638 1573 c-10 -2 -18 -9 -18 -15 0 -5 7 -7 16 -4 9 3 24 6 35 6 10
0 19 5 19 10 0 10 -21 11 -52 3z"/>
<path d="M3568 1543 c6 -2 18 -2 25 0 6 3 1 5 -13 5 -14 0 -19 -2 -12 -5z"/>
<path d="M3596 1471 c-29 -11 -4 -22 33 -15 17 4 31 10 31 15 0 11 -37 11 -64
0z"/>
<path d="M3485 1460 c-22 -10 -20 -11 13 -15 12 -1 22 2 22 7 0 5 3 7 8 5 4
-3 16 -1 27 4 16 6 13 8 -15 8 -19 0 -44 -4 -55 -9z"/>
<path d="M6543 1643 c9 -2 23 -2 30 0 6 3 -1 5 -18 5 -16 0 -22 -2 -12 -5z"/>
<path d="M7095 1550 c3 -5 13 -10 21 -10 8 0 12 5 9 10 -3 6 -13 10 -21 10 -8
0 -12 -4 -9 -10z"/>
<path d="M6941 1431 c-19 -12 47 -31 111 -31 46 0 71 13 45 23 -29 11 -143 17
-156 8z"/>
<path d="M7265 1410 c-3 -5 1 -10 10 -10 9 0 13 5 10 10 -3 6 -8 10 -10 10 -2
0 -7 -4 -10 -10z"/>
<path d="M4927 1313 c-8 -13 205 -25 217 -13 7 7 -12 10 -49 10 -33 0 -83 3
-111 6 -30 4 -54 2 -57 -3z"/>
<path d="M7207 1290 c-3 -11 -2 -20 3 -20 4 0 10 9 13 20 3 11 2 20 -3 20 -4
0 -10 -9 -13 -20z"/>
</g>
</svg>
